<?xml version='1.0' encoding='utf-8'?>
<svg xmlns="http://www.w3.org/2000/svg" version="1.0" width="393.000000pt" height="399.000000pt" viewBox="0 0 393.000000 399.000000" preserveAspectRatio="xMidYMid meet">  <rect x="0" y="0" width="393.000000" height="399.000000" fill="black" /><g transform="translate(0.000000,399.000000) scale(0.100000,-0.100000)" fill="#ffffff" stroke="none"> <path d="M1913 3943 c-13 -2 -24 -5 -25 -6 -1 -1 -5 -99 -9 -217 -9 -265 -32 -523 -52 -570 -8 -19 -20 -64 -27 -100 -7 -36 -18 -87 -26 -115 -8 -27 -22 -75 -31 -105 -17 -59 -38 -104 -98 -215 -58 -107 -78 -136 -134 -190 -29 -27 -64 -63 -79 -79 -31 -33 -70 -58 -167 -110 -38 -21 -89 -48 -112 -60 -22 -13 -54 -26 -70 -30 -15 -3 -64 -17 -108 -30 -44 -13 -109 -30 -145 -36 -36 -7 -83 -18 -105 -26 -22 -8 -105 -19 -185 -25 -80 -6 -153 -14 -162 -20 -10 -5 -99 -9 -198 -9 l-180 0 0 -54 0 -53 243 -7 c133 -4 256 -11 272 -16 17 -5 73 -14 125 -19 122 -13 226 -33 270 -53 19 -9 55 -21 80 -28 25 -6 53 -16 62 -21 10 -5 23 -9 30 -9 7 -1 31 -9 53 -20 22 -11 47 -19 56 -20 9 0 22 -7 29 -15 7 -8 20 -15 30 -15 10 0 24 -10 33 -22 8 -13 36 -34 63 -48 65 -34 214 -187 264 -271 22 -37 40 -72 40 -76 0 -5 11 -19 25 -31 14 -12 25 -32 25 -45 0 -13 5 -28 11 -34 5 -5 17 -33 25 -62 7 -28 21 -75 30 -103 9 -29 22 -89 30 -132 9 -44 22 -96 31 -115 20 -47 44 -307 50 -543 l4 -188 53 0 53 0 7 247 c4 136 11 252 16 258 4 5 11 55 15 110 4 55 13 111 20 125 7 14 20 57 29 95 23 98 75 265 92 297 8 14 14 35 14 46 0 11 11 29 25 40 14 11 25 24 25 28 0 5 16 31 35 58 19 27 35 55 35 62 0 12 163 184 174 184 3 0 40 24 81 53 106 72 199 119 291 147 44 12 102 33 129 45 28 12 75 25 105 29 29 4 59 10 64 14 20 13 230 33 481 46 138 7 251 14 253 15 1 0 2 21 2 45 0 31 -5 46 -16 50 -9 3 -90 6 -180 6 -90 0 -172 4 -182 9 -9 6 -84 14 -165 20 -81 5 -153 13 -160 18 -7 5 -50 18 -97 28 -47 10 -116 27 -155 37 -38 11 -90 25 -115 31 -25 6 -63 22 -85 34 -22 13 -48 26 -57 29 -10 4 -18 10 -18 15 0 5 -6 9 -13 9 -8 0 -32 13 -54 29 -22 16 -50 32 -63 36 -13 4 -67 51 -119 104 -102 101 -101 100 -143 179 -15 27 -31 52 -35 54 -10 4 -69 125 -78 158 -3 14 -10 34 -15 45 -4 11 -18 58 -30 105 -13 47 -33 119 -45 160 -13 41 -25 110 -29 153 -3 43 -10 86 -15 96 -5 9 -13 144 -17 300 l-7 283 -24 9 c-13 5 -25 8 -26 8 -1 -1 -12 -4 -24 -6z" /> </g> </svg>
